<svg xmlns="http://www.w3.org/2000/svg" width="26.25" height="30" viewBox="0 0 26.25 30">
  <path id="attachment" d="M22.1,11.51l-1.9-1.9-9.516,9.514a4.037,4.037,0,1,0,5.709,5.708L27.814,13.413A6.728,6.728,0,0,0,18.3,3.9L6.309,15.887l-.026.025A9.383,9.383,0,0,0,19.555,29.18l.024-.026h0l8.184-8.182-1.9-1.9-8.183,8.182-.025.025a6.692,6.692,0,0,1-9.465-9.462l.026-.025v0L20.2,5.8a4.037,4.037,0,1,1,5.71,5.708L14.492,22.927a1.345,1.345,0,1,1-1.9-1.9L22.1,11.51Z" transform="translate(-3.535 -1.928)" fill="#0a84ff"/>
</svg>
