<svg xmlns="http://www.w3.org/2000/svg" width="36.333" height="33" viewBox="0 0 36.333 33">
  <g id="briefcase" transform="translate(-1.5 -3)">
    <path id="Path_39" data-name="Path 39" d="M6.333,10.5H33a3.382,3.382,0,0,1,3.333,3.429V31.071A3.382,3.382,0,0,1,33,34.5H6.333A3.382,3.382,0,0,1,3,31.071V13.929A3.382,3.382,0,0,1,6.333,10.5Z" transform="translate(0 0)" fill="none" stroke="#7b1aff" stroke-linecap="round" stroke-linejoin="round" stroke-width="3"/>
    <path id="Path_40" data-name="Path 40" d="M24,34.5V7.833A3.18,3.18,0,0,0,21,4.5H15a3.18,3.18,0,0,0-3,3.333V34.5" transform="translate(1.667)" fill="none" stroke="#7b1aff" stroke-linecap="round" stroke-linejoin="round" stroke-width="3"/>
  </g>
</svg>
