<svg xmlns="http://www.w3.org/2000/svg" width="33" height="33" viewBox="0 0 33 33">
  <g id="dashboard" transform="translate(-89.213 -124.851)">
    <path id="Icon_feather-square" data-name="Icon feather-square" d="M5.844,4.5h9.411A1.344,1.344,0,0,1,16.6,5.844v9.411A1.344,1.344,0,0,1,15.256,16.6H5.844A1.344,1.344,0,0,1,4.5,15.256V5.844A1.344,1.344,0,0,1,5.844,4.5Z" transform="translate(104.113 139.751)" fill="none" stroke="#0a84ff" stroke-linecap="round" stroke-linejoin="round" stroke-width="3"/>
    <path id="Icon_feather-square-2" data-name="Icon feather-square" d="M5.844,4.5h9.411A1.344,1.344,0,0,1,16.6,5.844v9.411A1.344,1.344,0,0,1,15.256,16.6H5.844A1.344,1.344,0,0,1,4.5,15.256V5.844A1.344,1.344,0,0,1,5.844,4.5Z" transform="translate(104.113 121.851)" fill="none" stroke="#0a84ff" stroke-linecap="round" stroke-linejoin="round" stroke-width="3"/>
    <path id="Icon_feather-square-3" data-name="Icon feather-square" d="M5.844,4.5h9.411A1.344,1.344,0,0,1,16.6,5.844v9.411A1.344,1.344,0,0,1,15.256,16.6H5.844A1.344,1.344,0,0,1,4.5,15.256V5.844A1.344,1.344,0,0,1,5.844,4.5Z" transform="translate(86.213 121.851)" fill="none" stroke="#0a84ff" stroke-linecap="round" stroke-linejoin="round" stroke-width="3"/>
    <path id="Icon_feather-square-4" data-name="Icon feather-square" d="M5.844,4.5h9.411A1.344,1.344,0,0,1,16.6,5.844v9.411A1.344,1.344,0,0,1,15.256,16.6H5.844A1.344,1.344,0,0,1,4.5,15.256V5.844A1.344,1.344,0,0,1,5.844,4.5Z" transform="translate(86.213 139.751)" fill="none" stroke="#0a84ff" stroke-linecap="round" stroke-linejoin="round" stroke-width="3"/>
  </g>
</svg>
