<svg xmlns="http://www.w3.org/2000/svg" width="25.714" height="30" viewBox="0 0 25.714 30">
  <path id="pdf" d="M27.147,8.565a3.9,3.9,0,0,1,.8,1.272,3.863,3.863,0,0,1,.335,1.473V30.6A1.6,1.6,0,0,1,26.678,32.2H4.178A1.6,1.6,0,0,1,2.571,30.6V3.811A1.6,1.6,0,0,1,4.178,2.2h15a3.865,3.865,0,0,1,1.473.335,3.9,3.9,0,0,1,1.272.8ZM19.714,4.48v6.295h6.295a1.829,1.829,0,0,0-.368-.686L20.4,4.849a1.828,1.828,0,0,0-.686-.368Zm6.429,25.58V12.918H19.178a1.6,1.6,0,0,1-1.607-1.607V4.346H4.714V30.061H26.142Zm-8.6-9.927a12.738,12.738,0,0,0,1.406.938,16.612,16.612,0,0,1,1.959-.117q2.461,0,2.963.82a.809.809,0,0,1,.033.871.048.048,0,0,1-.017.033l-.034.033v.017q-.1.636-1.189.636a6.906,6.906,0,0,1-1.925-.335,12.207,12.207,0,0,1-2.176-.887A30.145,30.145,0,0,0,12,23.532q-2.561,4.386-4.051,4.386a.974.974,0,0,1-.469-.117l-.4-.2q-.017-.017-.1-.084a.692.692,0,0,1-.1-.6,3.636,3.636,0,0,1,.938-1.532,8.091,8.091,0,0,1,2.21-1.616.244.244,0,0,1,.385.1.1.1,0,0,1,.033.067q.871-1.423,1.791-3.3a25.551,25.551,0,0,0,1.741-4.386,13.533,13.533,0,0,1-.511-2.67,6.509,6.509,0,0,1,.109-2.134q.184-.67.7-.67h.368a.706.706,0,0,1,.586.251,1.337,1.337,0,0,1,.151,1.138.363.363,0,0,1-.067.134.436.436,0,0,1,.017.134v.5a21.922,21.922,0,0,1-.234,3.214,8.47,8.47,0,0,0,2.444,3.984ZM7.894,27.014a7.392,7.392,0,0,0,2.294-2.645,9.543,9.543,0,0,0-1.465,1.406A5.564,5.564,0,0,0,7.894,27.014Zm6.663-15.4a4.978,4.978,0,0,0-.034,2.21q.017-.117.117-.737,0-.05.117-.72a.377.377,0,0,1,.067-.134.048.048,0,0,1-.017-.033.034.034,0,0,0-.008-.025.034.034,0,0,1-.008-.025.964.964,0,0,0-.218-.6.048.048,0,0,1-.017.033v.033ZM12.481,22.678a24.555,24.555,0,0,1,4.754-1.356,2.525,2.525,0,0,1-.218-.159,3,3,0,0,1-.268-.226,8.868,8.868,0,0,1-2.126-2.946,22.371,22.371,0,0,1-1.39,3.3q-.5.937-.753,1.39ZM23.3,22.41a4.006,4.006,0,0,0-2.344-.4,6.332,6.332,0,0,0,2.076.469,1.624,1.624,0,0,0,.3-.017q0-.017-.033-.05Z" transform="translate(-2.571 -2.204)" fill="#7b1aff"/>
</svg>
