<svg xmlns="http://www.w3.org/2000/svg" width="39.667" height="33.13" viewBox="0 0 39.667 33.13">
  <g id="users" transform="translate(0 -2.87)">
    <path id="Path_29" data-name="Path 29" d="M25.5,31.5v-3a6,6,0,0,0-6-6H7.5a6,6,0,0,0-6,6v3" transform="translate(0 3)" fill="none" stroke="#7b1aff" stroke-linecap="round" stroke-linejoin="round" stroke-width="3"/>
    <path id="Path_30" data-name="Path 30" d="M19.5,10.5a6,6,0,1,1-6-6,6,6,0,0,1,6,6Z" transform="translate(1.048)" fill="none" stroke="#7b1aff" stroke-linecap="round" stroke-linejoin="round" stroke-width="3"/>
    <path id="Path_31" data-name="Path 31" d="M34.5,31.5v-3A6,6,0,0,0,30,22.7" transform="translate(3.667 3)" fill="none" stroke="#7b1aff" stroke-linecap="round" stroke-linejoin="round" stroke-width="3"/>
    <path id="Path_32" data-name="Path 32" d="M24,4.7A6,6,0,0,1,24,16.32" transform="translate(2.896)" fill="none" stroke="#7b1aff" stroke-linecap="round" stroke-linejoin="round" stroke-width="3"/>
  </g>
</svg>
